<?xml version="1.0" encoding="UTF-8"?>
<svg xmlns="http://www.w3.org/2000/svg" xmlns:xlink="http://www.w3.org/1999/xlink" width="854" height="480" viewBox="0 0 854 480">
<defs>
<g>
<g id="glyph-0-0">
<path d="M 0.0976562 -0.109375 C 0.347656 -0.128906 0.507812 -0.164062 0.582031 -0.222656 C 0.65625 -0.277344 0.691406 -0.425781 0.691406 -0.664062 L 0.691406 -3.378906 C 0.691406 -3.605469 0.65625 -3.75 0.582031 -3.816406 C 0.507812 -3.878906 0.347656 -3.917969 0.0976562 -3.929688 L 0.0976562 -4.042969 L 1.90625 -4.042969 L 1.90625 -3.929688 C 1.65625 -3.917969 1.496094 -3.878906 1.421875 -3.816406 C 1.347656 -3.75 1.3125 -3.605469 1.3125 -3.378906 L 1.3125 -0.664062 C 1.3125 -0.425781 1.347656 -0.277344 1.421875 -0.222656 C 1.496094 -0.164062 1.65625 -0.128906 1.90625 -0.109375 L 1.90625 0 L 0.0976562 0 Z "/>
</g>
<g id="glyph-0-1">
<path d="M 0.996094 0.0703125 C 0.902344 0.0703125 0.820312 0.0390625 0.753906 -0.0273438 C 0.6875 -0.09375 0.65625 -0.175781 0.65625 -0.269531 C 0.65625 -0.363281 0.691406 -0.441406 0.757812 -0.507812 C 0.824219 -0.574219 0.902344 -0.605469 0.996094 -0.605469 C 1.089844 -0.605469 1.167969 -0.574219 1.234375 -0.507812 C 1.300781 -0.441406 1.332031 -0.363281 1.332031 -0.269531 C 1.332031 -0.175781 1.300781 -0.09375 1.238281 -0.0273438 C 1.171875 0.0390625 1.09375 0.0703125 0.996094 0.0703125 Z "/>
</g>
<g id="glyph-0-2">
<rect x="0" y="0" width="0" height="0" mask="url(#mask-0)"/>
</g>
<g id="glyph-0-3">
<path d="M 1.816406 -0.222656 C 2.128906 -0.222656 2.390625 -0.28125 2.601562 -0.402344 C 2.8125 -0.523438 2.917969 -0.757812 2.917969 -1.101562 C 2.917969 -1.441406 2.792969 -1.675781 2.546875 -1.800781 C 2.300781 -1.925781 1.988281 -1.988281 1.605469 -1.988281 C 1.511719 -1.988281 1.453125 -1.988281 1.425781 -1.988281 C 1.402344 -1.988281 1.363281 -1.992188 1.3125 -1.992188 L 1.3125 -0.472656 C 1.3125 -0.367188 1.34375 -0.296875 1.402344 -0.265625 C 1.460938 -0.234375 1.601562 -0.222656 1.816406 -0.222656 Z M 0.105469 -0.109375 C 0.351562 -0.125 0.511719 -0.164062 0.582031 -0.226562 C 0.65625 -0.289062 0.691406 -0.433594 0.691406 -0.664062 L 0.691406 -3.378906 C 0.691406 -3.605469 0.65625 -3.75 0.582031 -3.816406 C 0.511719 -3.878906 0.351562 -3.917969 0.105469 -3.929688 L 0.105469 -4.042969 L 1.816406 -4.042969 C 2.304688 -4.042969 2.695312 -3.964844 2.980469 -3.808594 C 3.269531 -3.652344 3.414062 -3.378906 3.414062 -2.996094 C 3.414062 -2.707031 3.3125 -2.488281 3.113281 -2.339844 C 3 -2.253906 2.828125 -2.183594 2.601562 -2.128906 C 2.882812 -2.058594 3.121094 -1.945312 3.320312 -1.789062 C 3.519531 -1.628906 3.617188 -1.410156 3.617188 -1.125 C 3.617188 -0.648438 3.398438 -0.320312 2.957031 -0.140625 C 2.722656 -0.046875 2.4375 0 2.097656 0 L 0.105469 0 Z M 1.894531 -2.234375 C 2.097656 -2.238281 2.269531 -2.273438 2.40625 -2.332031 C 2.664062 -2.453125 2.792969 -2.667969 2.792969 -2.976562 C 2.792969 -3.339844 2.644531 -3.585938 2.34375 -3.710938 C 2.179688 -3.78125 1.929688 -3.816406 1.59375 -3.816406 C 1.464844 -3.816406 1.386719 -3.804688 1.359375 -3.78125 C 1.328125 -3.761719 1.3125 -3.703125 1.3125 -3.605469 L 1.3125 -2.226562 Z "/>
</g>
<g id="glyph-0-4">
<path d="M 2.726562 -1.570312 L 2.019531 -3.253906 L 1.320312 -1.570312 Z M 0.0898438 0 L 0.0898438 -0.109375 C 0.246094 -0.128906 0.363281 -0.1875 0.441406 -0.289062 C 0.519531 -0.390625 0.65625 -0.667969 0.847656 -1.117188 L 2.121094 -4.113281 L 2.242188 -4.113281 L 3.761719 -0.652344 C 3.863281 -0.421875 3.945312 -0.277344 4.003906 -0.222656 C 4.066406 -0.167969 4.167969 -0.128906 4.3125 -0.109375 L 4.3125 0 L 2.757812 0 L 2.757812 -0.109375 C 2.9375 -0.125 3.050781 -0.144531 3.101562 -0.167969 C 3.152344 -0.191406 3.179688 -0.246094 3.179688 -0.335938 C 3.179688 -0.367188 3.171875 -0.417969 3.152344 -0.496094 C 3.132812 -0.570312 3.101562 -0.652344 3.066406 -0.734375 L 2.8125 -1.320312 L 1.214844 -1.320312 C 1.054688 -0.921875 0.960938 -0.679688 0.929688 -0.589844 C 0.898438 -0.5 0.882812 -0.429688 0.882812 -0.378906 C 0.882812 -0.277344 0.925781 -0.203125 1.007812 -0.164062 C 1.058594 -0.140625 1.15625 -0.121094 1.300781 -0.109375 L 1.300781 0 Z M 2.664062 -4.414062 L 2.417969 -4.414062 L 1.476562 -5.007812 C 1.410156 -5.046875 1.363281 -5.089844 1.335938 -5.128906 C 1.304688 -5.167969 1.292969 -5.214844 1.292969 -5.265625 C 1.292969 -5.324219 1.3125 -5.371094 1.355469 -5.40625 C 1.398438 -5.445312 1.445312 -5.464844 1.496094 -5.464844 C 1.550781 -5.464844 1.597656 -5.449219 1.640625 -5.417969 C 1.683594 -5.390625 1.726562 -5.355469 1.765625 -5.316406 Z "/>
</g>
<g id="glyph-0-5">
<path d="M 0.121094 -4.042969 L 3.570312 -4.042969 L 3.605469 -3.003906 L 3.457031 -3.003906 C 3.386719 -3.332031 3.296875 -3.542969 3.183594 -3.640625 C 3.074219 -3.738281 2.84375 -3.789062 2.488281 -3.789062 L 2.148438 -3.789062 L 2.148438 -0.664062 C 2.148438 -0.425781 2.183594 -0.277344 2.257812 -0.222656 C 2.332031 -0.164062 2.492188 -0.128906 2.742188 -0.109375 L 2.742188 0 L 0.960938 0 L 0.960938 -0.109375 C 1.21875 -0.128906 1.378906 -0.171875 1.445312 -0.238281 C 1.507812 -0.304688 1.539062 -0.46875 1.539062 -0.734375 L 1.539062 -3.789062 L 1.199219 -3.789062 C 0.859375 -3.789062 0.632812 -3.742188 0.507812 -3.644531 C 0.386719 -3.546875 0.292969 -3.332031 0.234375 -3.003906 L 0.0820312 -3.003906 Z "/>
</g>
<g id="glyph-0-6">
<path d="M 2.726562 -1.570312 L 2.019531 -3.253906 L 1.320312 -1.570312 Z M 0.0898438 0 L 0.0898438 -0.109375 C 0.246094 -0.128906 0.363281 -0.1875 0.441406 -0.289062 C 0.519531 -0.390625 0.65625 -0.667969 0.847656 -1.117188 L 2.121094 -4.113281 L 2.242188 -4.113281 L 3.761719 -0.652344 C 3.863281 -0.421875 3.945312 -0.277344 4.003906 -0.222656 C 4.066406 -0.167969 4.167969 -0.128906 4.3125 -0.109375 L 4.3125 0 L 2.757812 0 L 2.757812 -0.109375 C 2.9375 -0.125 3.050781 -0.144531 3.101562 -0.167969 C 3.152344 -0.191406 3.179688 -0.246094 3.179688 -0.335938 C 3.179688 -0.367188 3.171875 -0.417969 3.152344 -0.496094 C 3.132812 -0.570312 3.101562 -0.652344 3.066406 -0.734375 L 2.8125 -1.320312 L 1.214844 -1.320312 C 1.054688 -0.921875 0.960938 -0.679688 0.929688 -0.589844 C 0.898438 -0.5 0.882812 -0.429688 0.882812 -0.378906 C 0.882812 -0.277344 0.925781 -0.203125 1.007812 -0.164062 C 1.058594 -0.140625 1.15625 -0.121094 1.300781 -0.109375 L 1.300781 0 Z M 1.210938 -4.484375 L 1.976562 -5.5 L 2.355469 -5.5 L 3.121094 -4.484375 L 2.910156 -4.484375 L 2.167969 -5.113281 L 1.421875 -4.484375 Z M 2.503906 0.601562 C 2.503906 0.683594 2.472656 0.753906 2.414062 0.816406 C 2.355469 0.875 2.285156 0.902344 2.199219 0.902344 C 2.117188 0.902344 2.042969 0.875 1.984375 0.816406 C 1.925781 0.753906 1.894531 0.683594 1.894531 0.601562 C 1.894531 0.515625 1.925781 0.445312 1.984375 0.386719 C 2.042969 0.324219 2.117188 0.296875 2.199219 0.296875 C 2.285156 0.296875 2.355469 0.324219 2.414062 0.386719 C 2.472656 0.445312 2.503906 0.515625 2.503906 0.601562 Z "/>
</g>
<g id="glyph-0-7">
<path d="M 2.644531 -2.933594 C 2.644531 -3.308594 2.480469 -3.5625 2.160156 -3.703125 C 1.988281 -3.777344 1.769531 -3.816406 1.503906 -3.816406 C 1.378906 -3.816406 1.300781 -3.804688 1.273438 -3.777344 C 1.242188 -3.753906 1.230469 -3.699219 1.230469 -3.613281 L 1.230469 -2.019531 C 1.339844 -2.011719 1.410156 -2.003906 1.445312 -2.003906 C 1.476562 -2 1.511719 -2 1.542969 -2 C 1.824219 -2 2.042969 -2.039062 2.203125 -2.117188 C 2.496094 -2.261719 2.644531 -2.535156 2.644531 -2.933594 Z M 0.0976562 -0.109375 C 0.332031 -0.132812 0.476562 -0.179688 0.535156 -0.25 C 0.59375 -0.320312 0.621094 -0.480469 0.621094 -0.734375 L 0.621094 -3.378906 C 0.621094 -3.59375 0.589844 -3.734375 0.523438 -3.800781 C 0.457031 -3.867188 0.316406 -3.910156 0.0976562 -3.929688 L 0.0976562 -4.042969 L 1.710938 -4.042969 C 2.226562 -4.042969 2.621094 -3.941406 2.898438 -3.742188 C 3.171875 -3.539062 3.308594 -3.277344 3.308594 -2.949219 C 3.308594 -2.53125 3.15625 -2.230469 2.851562 -2.042969 C 2.546875 -1.855469 2.167969 -1.761719 1.710938 -1.761719 C 1.644531 -1.761719 1.558594 -1.765625 1.457031 -1.769531 C 1.355469 -1.769531 1.277344 -1.773438 1.230469 -1.773438 L 1.230469 -0.664062 C 1.230469 -0.433594 1.265625 -0.285156 1.335938 -0.226562 C 1.40625 -0.167969 1.5625 -0.128906 1.808594 -0.109375 L 1.808594 0 L 0.0976562 0 Z "/>
</g>
<g id="glyph-0-8">
<path d="M 1.722656 -4.042969 L 1.722656 -3.929688 C 1.570312 -3.925781 1.46875 -3.917969 1.410156 -3.898438 C 1.3125 -3.867188 1.265625 -3.804688 1.265625 -3.707031 C 1.265625 -3.65625 1.28125 -3.585938 1.316406 -3.496094 C 1.351562 -3.40625 1.417969 -3.257812 1.511719 -3.046875 L 2.46875 -0.917969 L 3.335938 -3.222656 C 3.375 -3.324219 3.402344 -3.410156 3.421875 -3.480469 C 3.441406 -3.550781 3.453125 -3.605469 3.453125 -3.648438 C 3.453125 -3.765625 3.402344 -3.847656 3.300781 -3.886719 C 3.242188 -3.910156 3.140625 -3.925781 3.003906 -3.929688 L 3.003906 -4.042969 L 4.253906 -4.042969 L 4.253906 -3.9375 C 4.125 -3.921875 4.03125 -3.886719 3.96875 -3.832031 C 3.875 -3.753906 3.78125 -3.601562 3.691406 -3.367188 L 2.339844 0.0703125 L 2.246094 0.0703125 L 0.738281 -3.289062 C 0.613281 -3.574219 0.511719 -3.75 0.433594 -3.820312 C 0.355469 -3.890625 0.246094 -3.929688 0.0976562 -3.9375 L 0.0976562 -4.042969 Z "/>
</g>
<g id="glyph-0-9">
<path d="M 0.0703125 -0.109375 C 0.320312 -0.136719 0.484375 -0.195312 0.554688 -0.28125 C 0.625 -0.371094 0.664062 -0.574219 0.664062 -0.898438 L 0.664062 -3.59375 L 0.578125 -3.691406 C 0.488281 -3.796875 0.414062 -3.859375 0.351562 -3.886719 C 0.289062 -3.910156 0.195312 -3.925781 0.0703125 -3.929688 L 0.0703125 -4.042969 L 1.117188 -4.042969 L 3.46875 -1.101562 L 3.46875 -3.144531 C 3.46875 -3.480469 3.421875 -3.699219 3.320312 -3.800781 C 3.253906 -3.867188 3.109375 -3.910156 2.886719 -3.929688 L 2.886719 -4.042969 L 4.320312 -4.042969 L 4.320312 -3.929688 C 4.085938 -3.90625 3.933594 -3.847656 3.855469 -3.757812 C 3.777344 -3.667969 3.738281 -3.464844 3.738281 -3.144531 L 3.738281 0.0703125 L 3.632812 0.0703125 L 0.929688 -3.277344 L 0.929688 -0.898438 C 0.929688 -0.5625 0.980469 -0.347656 1.078125 -0.246094 C 1.140625 -0.179688 1.28125 -0.132812 1.503906 -0.109375 L 1.503906 0 L 0.0703125 0 Z "/>
</g>
<g id="glyph-0-10">
<path d="M 1.257812 -0.472656 C 1.257812 -0.371094 1.28125 -0.304688 1.328125 -0.273438 C 1.378906 -0.242188 1.480469 -0.226562 1.632812 -0.226562 C 2.109375 -0.226562 2.503906 -0.320312 2.808594 -0.511719 C 3.285156 -0.800781 3.519531 -1.296875 3.519531 -2 C 3.519531 -2.625 3.324219 -3.097656 2.9375 -3.414062 C 2.601562 -3.683594 2.160156 -3.820312 1.609375 -3.820312 C 1.472656 -3.820312 1.378906 -3.804688 1.328125 -3.773438 C 1.28125 -3.742188 1.257812 -3.679688 1.257812 -3.578125 Z M 0.0976562 -0.109375 C 0.320312 -0.132812 0.464844 -0.175781 0.535156 -0.230469 C 0.601562 -0.289062 0.636719 -0.429688 0.636719 -0.664062 L 0.636719 -3.378906 C 0.636719 -3.601562 0.601562 -3.746094 0.535156 -3.808594 C 0.472656 -3.875 0.324219 -3.914062 0.0976562 -3.929688 L 0.0976562 -4.042969 L 1.746094 -4.042969 C 2.300781 -4.042969 2.769531 -3.953125 3.152344 -3.769531 C 3.84375 -3.441406 4.191406 -2.851562 4.191406 -2.007812 C 4.191406 -1.703125 4.128906 -1.414062 4.003906 -1.140625 C 3.878906 -0.867188 3.695312 -0.632812 3.441406 -0.445312 C 3.285156 -0.324219 3.117188 -0.234375 2.949219 -0.171875 C 2.636719 -0.0585938 2.25 0 1.796875 0 L 0.0976562 0 Z "/>
</g>
<g id="glyph-0-11">
<path d="M 1.816406 -4.042969 L 1.816406 -3.929688 C 1.582031 -3.914062 1.429688 -3.875 1.359375 -3.8125 C 1.289062 -3.75 1.257812 -3.605469 1.257812 -3.378906 L 1.257812 -1.425781 C 1.257812 -1.105469 1.300781 -0.855469 1.386719 -0.675781 C 1.550781 -0.351562 1.859375 -0.1875 2.316406 -0.1875 C 2.816406 -0.1875 3.148438 -0.355469 3.320312 -0.6875 C 3.417969 -0.875 3.464844 -1.164062 3.464844 -1.554688 L 3.464844 -3.144531 C 3.464844 -3.476562 3.425781 -3.683594 3.34375 -3.769531 C 3.265625 -3.855469 3.113281 -3.90625 2.890625 -3.929688 L 2.890625 -4.042969 L 4.304688 -4.042969 L 4.304688 -3.929688 C 4.070312 -3.902344 3.914062 -3.847656 3.839844 -3.757812 C 3.769531 -3.667969 3.734375 -3.464844 3.734375 -3.144531 L 3.734375 -1.554688 C 3.734375 -1.132812 3.667969 -0.804688 3.539062 -0.566406 C 3.300781 -0.132812 2.847656 0.0859375 2.179688 0.0859375 C 1.519531 0.0859375 1.066406 -0.128906 0.828125 -0.558594 C 0.699219 -0.789062 0.636719 -1.09375 0.636719 -1.472656 L 0.636719 -3.378906 C 0.636719 -3.601562 0.601562 -3.746094 0.53125 -3.808594 C 0.464844 -3.871094 0.3125 -3.910156 0.0820312 -3.929688 L 0.0820312 -4.042969 Z M 2.496094 0.6875 C 2.496094 0.769531 2.46875 0.839844 2.410156 0.902344 C 2.351562 0.960938 2.277344 0.992188 2.191406 0.992188 C 2.109375 0.992188 2.039062 0.960938 1.976562 0.902344 C 1.917969 0.84375 1.886719 0.769531 1.886719 0.6875 C 1.886719 0.601562 1.917969 0.53125 1.976562 0.472656 C 2.039062 0.414062 2.109375 0.382812 2.191406 0.382812 C 2.277344 0.382812 2.351562 0.410156 2.410156 0.472656 C 2.46875 0.53125 2.496094 0.601562 2.496094 0.6875 Z "/>
</g>
<g id="glyph-0-12">
<path d="M 2.261719 -4.113281 C 2.5 -4.113281 2.730469 -4.082031 2.960938 -4.015625 C 3.1875 -3.949219 3.320312 -3.917969 3.355469 -3.917969 C 3.441406 -3.917969 3.503906 -3.933594 3.539062 -3.96875 C 3.578125 -4.003906 3.609375 -4.050781 3.632812 -4.113281 L 3.769531 -4.113281 L 3.816406 -2.828125 L 3.675781 -2.828125 C 3.550781 -3.125 3.421875 -3.34375 3.289062 -3.492188 C 3.046875 -3.746094 2.734375 -3.871094 2.347656 -3.871094 C 1.957031 -3.871094 1.613281 -3.722656 1.3125 -3.425781 C 1.015625 -3.128906 0.867188 -2.640625 0.867188 -1.957031 C 0.867188 -1.394531 1.015625 -0.953125 1.3125 -0.636719 C 1.609375 -0.320312 1.976562 -0.164062 2.410156 -0.164062 C 2.484375 -0.164062 2.570312 -0.171875 2.671875 -0.183594 C 2.769531 -0.199219 2.863281 -0.222656 2.953125 -0.25 C 3.097656 -0.296875 3.1875 -0.339844 3.226562 -0.375 C 3.261719 -0.410156 3.277344 -0.460938 3.277344 -0.527344 L 3.277344 -1.503906 C 3.277344 -1.738281 3.246094 -1.882812 3.179688 -1.941406 C 3.113281 -2 2.964844 -2.035156 2.742188 -2.050781 L 2.742188 -2.164062 L 4.300781 -2.164062 L 4.300781 -2.050781 C 4.148438 -2.039062 4.046875 -2.015625 3.996094 -1.976562 C 3.914062 -1.910156 3.871094 -1.78125 3.871094 -1.582031 L 3.871094 -0.378906 C 3.871094 -0.308594 3.695312 -0.210938 3.347656 -0.09375 C 2.996094 0.0273438 2.65625 0.0859375 2.332031 0.0859375 C 1.734375 0.0859375 1.234375 -0.0859375 0.824219 -0.4375 C 0.371094 -0.820312 0.144531 -1.335938 0.144531 -1.980469 C 0.144531 -2.550781 0.328125 -3.039062 0.6875 -3.441406 C 1.082031 -3.890625 1.605469 -4.113281 2.261719 -4.113281 Z "/>
</g>
<g id="glyph-0-13">
<path d="M 2.726562 -1.570312 L 2.019531 -3.253906 L 1.320312 -1.570312 Z M 0.0898438 0 L 0.0898438 -0.109375 C 0.246094 -0.128906 0.363281 -0.1875 0.441406 -0.289062 C 0.519531 -0.390625 0.65625 -0.667969 0.847656 -1.117188 L 2.121094 -4.113281 L 2.242188 -4.113281 L 3.761719 -0.652344 C 3.863281 -0.421875 3.945312 -0.277344 4.003906 -0.222656 C 4.066406 -0.167969 4.167969 -0.128906 4.3125 -0.109375 L 4.3125 0 L 2.757812 0 L 2.757812 -0.109375 C 2.9375 -0.125 3.050781 -0.144531 3.101562 -0.167969 C 3.152344 -0.191406 3.179688 -0.246094 3.179688 -0.335938 C 3.179688 -0.367188 3.171875 -0.417969 3.152344 -0.496094 C 3.132812 -0.570312 3.101562 -0.652344 3.066406 -0.734375 L 2.8125 -1.320312 L 1.214844 -1.320312 C 1.054688 -0.921875 0.960938 -0.679688 0.929688 -0.589844 C 0.898438 -0.5 0.882812 -0.429688 0.882812 -0.378906 C 0.882812 -0.277344 0.925781 -0.203125 1.007812 -0.164062 C 1.058594 -0.140625 1.15625 -0.121094 1.300781 -0.109375 L 1.300781 0 Z M 2.199219 -5.3125 C 2.160156 -5.335938 2.121094 -5.351562 2.085938 -5.363281 C 2.046875 -5.375 1.996094 -5.378906 1.941406 -5.378906 C 1.882812 -5.378906 1.800781 -5.371094 1.699219 -5.359375 L 1.683594 -5.652344 C 1.738281 -5.660156 1.792969 -5.664062 1.847656 -5.671875 C 1.902344 -5.675781 1.953125 -5.675781 2.003906 -5.675781 C 2.128906 -5.675781 2.242188 -5.65625 2.351562 -5.617188 C 2.457031 -5.574219 2.554688 -5.496094 2.632812 -5.378906 C 2.65625 -5.347656 2.675781 -5.304688 2.691406 -5.253906 C 2.710938 -5.203125 2.71875 -5.148438 2.71875 -5.085938 C 2.71875 -5.035156 2.710938 -4.984375 2.695312 -4.933594 C 2.679688 -4.878906 2.65625 -4.832031 2.617188 -4.785156 C 2.578125 -4.738281 2.527344 -4.699219 2.464844 -4.664062 C 2.402344 -4.628906 2.320312 -4.601562 2.230469 -4.582031 L 2.214844 -4.417969 L 1.886719 -4.417969 L 1.886719 -4.703125 C 2.035156 -4.714844 2.148438 -4.761719 2.230469 -4.832031 C 2.3125 -4.90625 2.351562 -4.988281 2.351562 -5.070312 C 2.351562 -5.117188 2.339844 -5.15625 2.3125 -5.199219 C 2.289062 -5.238281 2.25 -5.277344 2.199219 -5.3125 Z "/>
</g>
<g id="glyph-0-14">
<path d="M 0.0976562 -0.109375 C 0.335938 -0.136719 0.484375 -0.179688 0.546875 -0.242188 C 0.605469 -0.304688 0.636719 -0.46875 0.636719 -0.734375 L 0.636719 -3.378906 C 0.636719 -3.597656 0.601562 -3.742188 0.535156 -3.808594 C 0.46875 -3.875 0.324219 -3.914062 0.0976562 -3.929688 L 0.0976562 -4.042969 L 1.796875 -4.042969 L 1.796875 -3.929688 C 1.570312 -3.914062 1.425781 -3.871094 1.359375 -3.808594 C 1.289062 -3.742188 1.257812 -3.597656 1.257812 -3.378906 L 1.257812 -2.191406 L 3.109375 -2.191406 L 3.109375 -3.378906 C 3.109375 -3.597656 3.074219 -3.742188 3.011719 -3.808594 C 2.945312 -3.875 2.796875 -3.914062 2.570312 -3.929688 L 2.570312 -4.042969 L 4.269531 -4.042969 L 4.269531 -3.929688 C 4.042969 -3.914062 3.898438 -3.871094 3.832031 -3.808594 C 3.765625 -3.742188 3.734375 -3.597656 3.734375 -3.378906 L 3.734375 -0.664062 C 3.734375 -0.441406 3.765625 -0.296875 3.832031 -0.234375 C 3.898438 -0.171875 4.042969 -0.128906 4.269531 -0.109375 L 4.269531 0 L 2.570312 0 L 2.570312 -0.109375 C 2.8125 -0.132812 2.960938 -0.179688 3.019531 -0.242188 C 3.078125 -0.304688 3.109375 -0.46875 3.109375 -0.734375 L 3.109375 -1.921875 L 1.257812 -1.921875 L 1.257812 -0.664062 C 1.257812 -0.441406 1.289062 -0.296875 1.359375 -0.234375 C 1.425781 -0.167969 1.570312 -0.128906 1.796875 -0.109375 L 1.796875 0 L 0.0976562 0 Z "/>
</g>
<g id="glyph-0-15">
<path d="M 0.0976562 -0.109375 C 0.347656 -0.128906 0.507812 -0.164062 0.582031 -0.222656 C 0.65625 -0.277344 0.691406 -0.425781 0.691406 -0.664062 L 0.691406 -3.378906 C 0.691406 -3.605469 0.65625 -3.75 0.582031 -3.816406 C 0.507812 -3.878906 0.347656 -3.917969 0.0976562 -3.929688 L 0.0976562 -4.042969 L 1.90625 -4.042969 L 1.90625 -3.929688 C 1.65625 -3.917969 1.496094 -3.878906 1.421875 -3.816406 C 1.347656 -3.75 1.3125 -3.605469 1.3125 -3.378906 L 1.3125 -0.664062 C 1.3125 -0.425781 1.347656 -0.277344 1.421875 -0.222656 C 1.496094 -0.164062 1.65625 -0.128906 1.90625 -0.109375 L 1.90625 0 L 0.0976562 0 Z M 1.945312 -5.195312 C 1.945312 -5.136719 1.929688 -5.089844 1.898438 -5.050781 C 1.867188 -5.011719 1.820312 -4.972656 1.757812 -4.933594 L 0.816406 -4.339844 L 0.570312 -4.339844 L 1.46875 -5.246094 C 1.5 -5.277344 1.539062 -5.308594 1.585938 -5.34375 C 1.632812 -5.378906 1.6875 -5.394531 1.738281 -5.394531 C 1.789062 -5.394531 1.839844 -5.375 1.882812 -5.339844 C 1.925781 -5.300781 1.945312 -5.253906 1.945312 -5.195312 Z "/>
</g>
<g id="glyph-0-16">
<path d="M 2.261719 -4.113281 C 2.480469 -4.113281 2.710938 -4.082031 2.941406 -4.015625 C 3.175781 -3.949219 3.304688 -3.917969 3.332031 -3.917969 C 3.390625 -3.917969 3.445312 -3.933594 3.496094 -3.964844 C 3.546875 -3.996094 3.585938 -4.046875 3.605469 -4.113281 L 3.734375 -4.113281 L 3.789062 -2.742188 L 3.648438 -2.742188 C 3.566406 -3.015625 3.460938 -3.234375 3.328125 -3.402344 C 3.078125 -3.714844 2.742188 -3.871094 2.316406 -3.871094 C 1.890625 -3.871094 1.539062 -3.703125 1.269531 -3.367188 C 0.996094 -3.027344 0.863281 -2.5625 0.863281 -1.96875 C 0.863281 -1.425781 1.003906 -0.988281 1.289062 -0.664062 C 1.574219 -0.339844 1.9375 -0.175781 2.375 -0.175781 C 2.691406 -0.175781 2.984375 -0.25 3.25 -0.402344 C 3.402344 -0.488281 3.570312 -0.617188 3.753906 -0.789062 L 3.867188 -0.675781 C 3.730469 -0.503906 3.5625 -0.355469 3.363281 -0.226562 C 3.019531 -0.0078125 2.648438 0.101562 2.25 0.101562 C 1.59375 0.101562 1.070312 -0.109375 0.6875 -0.527344 C 0.332031 -0.914062 0.152344 -1.398438 0.152344 -1.980469 C 0.152344 -2.574219 0.339844 -3.074219 0.714844 -3.480469 C 1.113281 -3.902344 1.628906 -4.113281 2.261719 -4.113281 Z "/>
</g>
<g id="glyph-0-17">
<path d="M 1.816406 -4.042969 L 1.816406 -3.929688 C 1.582031 -3.914062 1.429688 -3.875 1.359375 -3.8125 C 1.289062 -3.75 1.257812 -3.605469 1.257812 -3.378906 L 1.257812 -1.425781 C 1.257812 -1.105469 1.300781 -0.855469 1.386719 -0.675781 C 1.550781 -0.351562 1.859375 -0.1875 2.316406 -0.1875 C 2.816406 -0.1875 3.148438 -0.355469 3.320312 -0.6875 C 3.417969 -0.875 3.464844 -1.164062 3.464844 -1.554688 L 3.464844 -3.144531 C 3.464844 -3.476562 3.425781 -3.683594 3.34375 -3.769531 C 3.265625 -3.855469 3.113281 -3.90625 2.890625 -3.929688 L 2.890625 -4.042969 L 4.304688 -4.042969 L 4.304688 -3.929688 C 4.070312 -3.902344 3.914062 -3.847656 3.839844 -3.757812 C 3.769531 -3.667969 3.734375 -3.464844 3.734375 -3.144531 L 3.734375 -1.554688 C 3.734375 -1.132812 3.667969 -0.804688 3.539062 -0.566406 C 3.300781 -0.132812 2.847656 0.0859375 2.179688 0.0859375 C 1.519531 0.0859375 1.066406 -0.128906 0.828125 -0.558594 C 0.699219 -0.789062 0.636719 -1.09375 0.636719 -1.472656 L 0.636719 -3.378906 C 0.636719 -3.601562 0.601562 -3.746094 0.53125 -3.808594 C 0.464844 -3.871094 0.3125 -3.910156 0.0820312 -3.929688 L 0.0820312 -4.042969 Z "/>
</g>
<g id="glyph-0-18">
<path d="M 1.84375 -4.042969 L 1.84375 -3.929688 C 1.699219 -3.933594 1.59375 -3.921875 1.523438 -3.898438 C 1.449219 -3.871094 1.414062 -3.816406 1.414062 -3.730469 C 1.414062 -3.703125 1.421875 -3.671875 1.433594 -3.632812 C 1.445312 -3.59375 1.472656 -3.542969 1.511719 -3.480469 L 2.417969 -2.121094 L 3.292969 -3.5 C 3.328125 -3.558594 3.351562 -3.605469 3.363281 -3.644531 C 3.375 -3.679688 3.378906 -3.707031 3.378906 -3.726562 C 3.378906 -3.8125 3.332031 -3.871094 3.238281 -3.898438 C 3.183594 -3.917969 3.089844 -3.925781 2.953125 -3.929688 L 2.953125 -4.042969 L 4.289062 -4.042969 L 4.289062 -3.929688 C 4.167969 -3.921875 4.058594 -3.886719 3.960938 -3.820312 C 3.808594 -3.714844 3.636719 -3.519531 3.449219 -3.230469 L 2.546875 -1.851562 L 2.546875 -0.664062 C 2.546875 -0.425781 2.582031 -0.277344 2.660156 -0.21875 C 2.738281 -0.160156 2.90625 -0.125 3.175781 -0.109375 L 3.175781 0 L 1.308594 0 L 1.308594 -0.109375 C 1.582031 -0.125 1.753906 -0.167969 1.820312 -0.234375 C 1.886719 -0.300781 1.921875 -0.46875 1.921875 -0.734375 L 1.921875 -1.796875 L 1.121094 -2.96875 C 0.84375 -3.371094 0.652344 -3.632812 0.539062 -3.746094 C 0.429688 -3.859375 0.292969 -3.921875 0.132812 -3.929688 L 0.132812 -4.042969 Z "/>
</g>
<g id="glyph-0-19">
<path d="M 0.0703125 -0.109375 C 0.292969 -0.132812 0.4375 -0.175781 0.503906 -0.230469 C 0.570312 -0.289062 0.605469 -0.429688 0.605469 -0.664062 L 0.605469 -3.378906 C 0.605469 -3.597656 0.574219 -3.738281 0.507812 -3.804688 C 0.441406 -3.871094 0.296875 -3.914062 0.0703125 -3.929688 L 0.0703125 -4.042969 L 3.316406 -4.042969 L 3.335938 -3.164062 L 3.179688 -3.164062 C 3.128906 -3.4375 3.050781 -3.609375 2.949219 -3.691406 C 2.84375 -3.769531 2.613281 -3.808594 2.253906 -3.808594 L 1.425781 -3.808594 C 1.335938 -3.808594 1.28125 -3.796875 1.261719 -3.765625 C 1.238281 -3.738281 1.230469 -3.683594 1.230469 -3.605469 L 1.230469 -2.242188 L 2.167969 -2.242188 C 2.429688 -2.242188 2.597656 -2.28125 2.667969 -2.355469 C 2.738281 -2.433594 2.796875 -2.589844 2.839844 -2.828125 L 2.984375 -2.828125 L 2.984375 -1.414062 L 2.839844 -1.414062 C 2.792969 -1.652344 2.734375 -1.808594 2.664062 -1.882812 C 2.59375 -1.960938 2.425781 -2 2.167969 -2 L 1.230469 -2 L 1.230469 -0.484375 C 1.230469 -0.363281 1.265625 -0.292969 1.34375 -0.273438 C 1.421875 -0.25 1.648438 -0.238281 2.03125 -0.238281 C 2.445312 -0.238281 2.75 -0.285156 2.949219 -0.375 C 3.144531 -0.464844 3.320312 -0.683594 3.480469 -1.03125 L 3.648438 -1.03125 L 3.371094 0 L 0.0703125 0 Z M 0.914062 -4.339844 L 1.679688 -5.359375 L 2.0625 -5.359375 L 2.824219 -4.339844 L 2.613281 -4.339844 L 1.871094 -4.96875 L 1.128906 -4.339844 Z "/>
</g>
<g id="glyph-0-20">
<path d="M 0.394531 -1.230469 C 0.496094 -0.957031 0.617188 -0.734375 0.757812 -0.574219 C 1 -0.289062 1.300781 -0.144531 1.660156 -0.144531 C 1.855469 -0.144531 2.023438 -0.207031 2.167969 -0.332031 C 2.308594 -0.453125 2.382812 -0.625 2.382812 -0.847656 C 2.382812 -1.046875 2.308594 -1.21875 2.167969 -1.367188 C 2.074219 -1.460938 1.875 -1.601562 1.574219 -1.789062 L 1.054688 -2.113281 C 0.898438 -2.210938 0.769531 -2.3125 0.675781 -2.414062 C 0.503906 -2.605469 0.417969 -2.820312 0.417969 -3.050781 C 0.417969 -3.359375 0.519531 -3.617188 0.726562 -3.820312 C 0.929688 -4.027344 1.203125 -4.128906 1.539062 -4.128906 C 1.679688 -4.128906 1.847656 -4.09375 2.042969 -4.027344 C 2.238281 -3.957031 2.351562 -3.921875 2.378906 -3.921875 C 2.453125 -3.921875 2.503906 -3.941406 2.535156 -3.976562 C 2.5625 -4.011719 2.585938 -4.0625 2.601562 -4.128906 L 2.726562 -4.128906 L 2.859375 -2.828125 L 2.714844 -2.828125 C 2.617188 -3.21875 2.457031 -3.492188 2.234375 -3.648438 C 2.015625 -3.804688 1.800781 -3.882812 1.585938 -3.882812 C 1.417969 -3.882812 1.273438 -3.832031 1.148438 -3.734375 C 1.023438 -3.636719 0.960938 -3.5 0.960938 -3.324219 C 0.960938 -3.167969 1.007812 -3.03125 1.105469 -2.921875 C 1.199219 -2.808594 1.347656 -2.6875 1.546875 -2.566406 L 2.085938 -2.234375 C 2.421875 -2.027344 2.660156 -1.835938 2.796875 -1.664062 C 2.929688 -1.488281 3 -1.28125 3 -1.042969 C 3 -0.722656 2.878906 -0.457031 2.636719 -0.242188 C 2.394531 -0.0273438 2.085938 0.0820312 1.710938 0.0820312 C 1.519531 0.0820312 1.324219 0.0429688 1.117188 -0.0273438 C 0.910156 -0.0976562 0.792969 -0.132812 0.765625 -0.132812 C 0.691406 -0.132812 0.644531 -0.113281 0.617188 -0.0703125 C 0.59375 -0.0273438 0.578125 0.0234375 0.570312 0.0703125 L 0.4375 0.0703125 L 0.253906 -1.230469 Z "/>
</g>
<g id="glyph-0-21">
<path d="M 2.726562 -1.570312 L 2.019531 -3.253906 L 1.320312 -1.570312 Z M 0.0898438 0 L 0.0898438 -0.109375 C 0.246094 -0.128906 0.363281 -0.1875 0.441406 -0.289062 C 0.519531 -0.390625 0.65625 -0.667969 0.847656 -1.117188 L 2.121094 -4.113281 L 2.242188 -4.113281 L 3.761719 -0.652344 C 3.863281 -0.421875 3.945312 -0.277344 4.003906 -0.222656 C 4.066406 -0.167969 4.167969 -0.128906 4.3125 -0.109375 L 4.3125 0 L 2.757812 0 L 2.757812 -0.109375 C 2.9375 -0.125 3.050781 -0.144531 3.101562 -0.167969 C 3.152344 -0.191406 3.179688 -0.246094 3.179688 -0.335938 C 3.179688 -0.367188 3.171875 -0.417969 3.152344 -0.496094 C 3.132812 -0.570312 3.101562 -0.652344 3.066406 -0.734375 L 2.8125 -1.320312 L 1.214844 -1.320312 C 1.054688 -0.921875 0.960938 -0.679688 0.929688 -0.589844 C 0.898438 -0.5 0.882812 -0.429688 0.882812 -0.378906 C 0.882812 -0.277344 0.925781 -0.203125 1.007812 -0.164062 C 1.058594 -0.140625 1.15625 -0.121094 1.300781 -0.109375 L 1.300781 0 Z M 1.226562 -4.414062 L 1.988281 -5.429688 L 2.371094 -5.429688 L 3.136719 -4.414062 L 2.925781 -4.414062 L 2.179688 -5.042969 L 1.4375 -4.414062 Z "/>
</g>
</g>
<image id="source-156" x="0" y="0" width="0" height="0"/>
<mask id="mask-0">
<use xlink:href="#source-156"/>
</mask>
</defs>
<g fill="rgb(96.862745%, 85.098039%, 43.529412%)" fill-opacity="1">
<use xlink:href="#glyph-0-0" x="30" y="24.583008"/>
<use xlink:href="#glyph-0-0" x="32" y="24.583008"/>
<use xlink:href="#glyph-0-0" x="34" y="24.583008"/>
<use xlink:href="#glyph-0-1" x="36" y="24.583008"/>
<use xlink:href="#glyph-0-2" x="38" y="24.583008"/>
<use xlink:href="#glyph-0-3" x="40" y="24.583008"/>
<use xlink:href="#glyph-0-4" x="44" y="24.583008"/>
<use xlink:href="#glyph-0-0" x="48" y="24.583008"/>
<use xlink:href="#glyph-0-2" x="50" y="24.583008"/>
<use xlink:href="#glyph-0-5" x="51" y="24.583008"/>
<use xlink:href="#glyph-0-6" x="55" y="24.583008"/>
<use xlink:href="#glyph-0-7" x="59" y="24.583008"/>
<use xlink:href="#glyph-0-2" x="62" y="24.583008"/>
<use xlink:href="#glyph-0-8" x="63" y="24.583008"/>
<use xlink:href="#glyph-0-6" x="67" y="24.583008"/>
<use xlink:href="#glyph-0-9" x="71" y="24.583008"/>
<use xlink:href="#glyph-0-2" x="75" y="24.583008"/>
<use xlink:href="#glyph-0-10" x="77" y="24.583008"/>
<use xlink:href="#glyph-0-11" x="81" y="24.583008"/>
<use xlink:href="#glyph-0-9" x="85" y="24.583008"/>
<use xlink:href="#glyph-0-12" x="89" y="24.583008"/>
<use xlink:href="#glyph-0-2" x="93" y="24.583008"/>
<use xlink:href="#glyph-0-12" x="95" y="24.583008"/>
<use xlink:href="#glyph-0-0" x="99" y="24.583008"/>
<use xlink:href="#glyph-0-13" x="101" y="24.583008"/>
<use xlink:href="#glyph-0-0" x="105" y="24.583008"/>
<use xlink:href="#glyph-0-2" x="107" y="24.583008"/>
<use xlink:href="#glyph-0-5" x="108" y="24.583008"/>
<use xlink:href="#glyph-0-14" x="112" y="24.583008"/>
<use xlink:href="#glyph-0-15" x="116" y="24.583008"/>
<use xlink:href="#glyph-0-16" x="118" y="24.583008"/>
<use xlink:href="#glyph-0-14" x="122" y="24.583008"/>
<use xlink:href="#glyph-0-2" x="126" y="24.583008"/>
<use xlink:href="#glyph-0-16" x="128" y="24.583008"/>
<use xlink:href="#glyph-0-14" x="132" y="24.583008"/>
<use xlink:href="#glyph-0-17" x="136" y="24.583008"/>
<use xlink:href="#glyph-0-18" x="140" y="24.583008"/>
<use xlink:href="#glyph-0-19" x="144" y="24.583008"/>
<use xlink:href="#glyph-0-9" x="148" y="24.583008"/>
<use xlink:href="#glyph-0-2" x="152" y="24.583008"/>
<use xlink:href="#glyph-0-20" x="154" y="24.583008"/>
<use xlink:href="#glyph-0-21" x="157" y="24.583008"/>
<use xlink:href="#glyph-0-17" x="161" y="24.583008"/>
</g>
</svg>
